<svg fill="none" xmlns="http://www.w3.org/2000/svg" viewBox="37.47 37.47 181.03 181.03">
<path d="M191.979 63.9932C183.576 55.5895 173.599 48.9233 162.619 44.3752C151.639 39.8272 139.871 37.4863 127.986 37.4863C116.102 37.4863 104.333 39.8272 93.3535 44.3752C82.3735 48.9233 72.3969 55.5895 63.9932 63.9932C55.5895 72.3969 48.9233 82.3735 44.3752 93.3535C39.8272 104.333 37.4863 116.102 37.4863 127.986C37.4863 139.871 39.8272 151.639 44.3752 162.619C48.9233 173.599 55.5895 183.576 63.9932 191.979L127.986 127.986L191.979 63.9932Z" fill="#5FB0A2"/>
<path d="M191.979 63.9932C200.383 72.3969 207.049 82.3735 211.597 93.3535C216.145 104.333 218.486 116.102 218.486 127.986C218.486 139.871 216.145 151.639 211.597 162.619C207.049 173.599 200.383 183.576 191.979 191.979C183.576 200.383 173.599 207.049 162.619 211.597C151.639 216.145 139.871 218.486 127.986 218.486C116.102 218.486 104.333 216.145 93.3535 211.597C82.3735 207.049 72.3969 200.383 63.9932 191.979L127.986 127.986L191.979 63.9932Z" fill="#FFC348"/>
<circle cx="126.986" cy="128.986" r="62.5" fill="white"/>
</svg>