<svg width="176" height="173" viewBox="0 0 176 173" fill="none" xmlns="http://www.w3.org/2000/svg">
<path d="M176 86.3396C176 75.0013 173.724 63.7741 169.301 53.2989C164.879 42.8237 158.397 33.3057 150.225 25.2883C142.054 17.2709 132.353 10.9112 121.676 6.57221C110.999 2.23324 99.5563 -4.95612e-07 88 0C76.4437 4.95612e-07 65.0005 2.23324 54.3239 6.57221C43.6472 10.9112 33.9462 17.2709 25.7746 25.2883C17.603 33.3057 11.121 42.8237 6.6986 53.2989C2.27619 63.7741 -1.01029e-06 75.0013 0 86.3396L88 86.3396H176Z" fill="#ECECEC"/>
<path d="M176 86.3396C176 97.6779 173.724 108.905 169.301 119.38C164.879 129.856 158.397 139.374 150.225 147.391C142.054 155.408 132.353 161.768 121.676 166.107C110.999 170.446 99.5563 172.679 88 172.679C76.4437 172.679 65.0005 170.446 54.3239 166.107C43.6472 161.768 33.9462 155.408 25.7746 147.391C17.603 139.374 11.121 129.856 6.6986 119.38C2.27619 108.905 -1.01029e-06 97.6779 0 86.3396L88 86.3396H176Z" fill="#51988D"/>
<path d="M176 86.5731C176 80.904 173.724 75.2904 169.301 70.0528C164.879 64.8152 158.397 60.0562 150.225 56.0475C142.054 52.0388 132.353 48.8589 121.676 46.6894C110.999 44.5199 99.5563 43.4033 88 43.4033C76.4437 43.4033 65.0005 44.5199 54.3239 46.6894C43.6472 48.8589 33.9462 52.0388 25.7746 56.0475C17.603 60.0562 11.121 64.8152 6.6986 70.0528C2.27619 75.2904 -1.01029e-06 80.904 0 86.5731L88 86.5731H176Z" fill="#5FB0A2"/>
<path d="M176 86.5731C176 92.2422 173.724 97.8559 169.301 103.093C164.879 108.331 158.397 113.09 150.225 117.099C142.054 121.107 132.353 124.287 121.676 126.457C110.999 128.626 99.5563 129.743 88 129.743C76.4437 129.743 65.0005 128.626 54.3239 126.457C43.6472 124.287 33.9462 121.107 25.7746 117.099C17.603 113.09 11.121 108.331 6.6986 103.093C2.27619 97.8559 -1.01029e-06 92.2422 0 86.5731L88 86.5731H176Z" fill="#D6D6D6"/>
</svg>
